<?xml version="1.0" encoding="UTF-8"?>
<svg id="Capa_2" data-name="Capa 2" xmlns="http://www.w3.org/2000/svg" viewBox="0 0 312.51 312.51">
  <defs>
    <style>
      .cls-1 {
        fill: #ff0200;
      }

      .cls-2 {
        fill: none;
      }
    </style>
  </defs>
  <g id="Capa_1-2" data-name="Capa 1">
    <g>
      <rect class="cls-2" width="312.51" height="312.51"/>
      <g>
        <path class="cls-1" d="M204.29,222.07c3.22-8.62-1.31-17.39-9.86-19.2-12.59-2.67-25.77-.19-32.93-12.99-4.09-7.31-4.64-16.15.35-22.82-.57,7.53.79,15.93,8.04,19.02s14.52-2.88,15.59-10.43c1.16-8.15-3.49-15.8-10.7-20.16-13.12-7.94-30.33-9.64-39.83-21.09-9.22-11.11-10.23-26.82-3.6-39.59,6.04-11.64,16.8-20.31,30.21-22.82-7.1,5.4-10.68,14.94-5.62,22.69,4.59,7.03,13.58,8.94,21.28,6.48,7.14-2.28,12.36-9.16,13.1-17.57,1.29-14.6-13.9-24.78-18.93-38.15-2.76-7.32-.93-15.95,6.63-19.03-2.25,5.85-2.1,11.28,1.07,16.42,5.08,8.23,11.36,15.55,17.86,22.81,28.34,31.65-6.92,60.92-3.28,92.73,1.47,12.86,10.45,22.54,23.41,23.37,7.61.49,13.27-4.92,14.11-12.59.7-6.38-1.97-11.92-5.06-17.54,21.06,14.41,18.81,45.37,9.62,66.27s-28.68,36.19-51.89,38.68c-17.62,1.89-35.37-3.89-47.09-18.05,18.69,7.51,37.85,7.64,54.61-2.16,5.58-3.26,10.52-7.89,12.9-14.28Z"/>
        <path class="cls-1" d="M123.51,211.68c-4.32,6.73-6.31,14.59-5,22.04,2.59,14.7,13.24,25.74,27.19,30.52,26.49,8.4,52.93.87,77.61-12.55-15.53,18.06-37.37,29.91-60.41,33.74-6.56,1.09-14.11.69-20.64,0-21.46-2.23-41.14-12.51-54.12-29.49-10.99-14.37-15.89-31.41-17.39-49.36-.72-8.67-1.06-17.51-.17-26.4,3.02-30.15,15.47-58.3,34.72-81.45,10.33-12.42,22.57-22.43,38.06-28.32-8.88,8.59-16.53,16.26-22.65,26.56-10.76,18.12-17.82,38.21-19.98,59.23-.85,8.32,1.72,16.42,7.63,21.58s15.53,5.61,20.12-1.01c5.51-7.94,1.07-17.41-6.62-22.76,9.56-2.79,17.45,4.33,19.71,12.92,2.12,8.06-.07,16.71-4.65,23.84l-13.43,20.91Z"/>
      </g>
    </g>
  </g>
</svg>